<svg width="24" height="24" viewBox="0 0 24 24" fill="none" xmlns="http://www.w3.org/2000/svg">
<path d="M13 10L12.5 9L12 10L11 10.5L12 11L12.5 12L13 11L14 10.5L13 10ZM19.75 19H19L15.8494 11.7294C15.6242 11.2105 15.5996 10.6266 15.7803 10.0906L17.8334 4L10.9947 7.865C10.1319 8.3525 9.44906 9.09969 9.04563 9.99781L5 19H4.25C4.11187 19 4 19.1119 4 19.25V19.75C4 19.8881 4.11187 20 4.25 20H19.75C19.8881 20 20 19.8881 20 19.75V19.25C20 19.1119 19.8881 19 19.75 19ZM6.09625 19L7.0875 16.7937L8.83313 17.6666L9.5 19H6.09625ZM10 17.7641L9.57875 16.9213L8.73594 16.5L9.57844 16.0787L10 15.2359L10.4212 16.0784L11.2641 16.5L10.4216 16.9213L10 17.7641ZM10.5 19L11.1666 17.6666L13.5 16.5L11.1666 15.3334L10 13L8.83344 15.3334L7.42844 16.0359L9.95781 10.4075C10.2762 9.69906 10.805 9.12063 11.4869 8.73531L16.0519 6.15563L14.8331 9.77125C14.5731 10.5428 14.6081 11.3797 14.9322 12.1269L15.6728 13.8363L15 13.5L14.5 12.5L14 13.5L13 14L14 14.5L14.5 15.5L15 14.5L15.7894 14.1053L17.91 19H10.5Z" fill="#343839"/>
</svg>
