<svg width="20" height="16" viewBox="0 0 20 16" fill="none" xmlns="http://www.w3.org/2000/svg">
<path d="M18.812 3.70625L16.7839 0.46875C16.6026 0.178125 16.2808 0 15.937 0H3.31201C2.96826 0 2.64639 0.178125 2.46514 0.46875L0.437011 3.70625C-0.487989 5.18125 0.124511 7.1625 1.62451 7.79375V14.9C1.62451 15.5062 2.07139 16 2.62451 16H16.6245C17.1776 16 17.6245 15.5062 17.6245 14.9V7.79375C19.1245 7.1625 19.737 5.18125 18.812 3.70625ZM16.6245 14.9C16.6245 14.9625 16.5995 14.9969 16.6183 15L2.66201 15.0094C2.65264 15.0031 2.62451 14.9688 2.62451 14.9V11H16.6245V14.9ZM2.62451 10V8H2.70264C3.62764 8 4.44639 7.59375 5.00889 6.96562C5.57139 7.59375 6.39326 8 7.31514 8C8.24014 8 9.05889 7.59375 9.62139 6.96562C10.1839 7.59375 11.0058 8 11.9276 8C12.8526 8 13.6714 7.59375 14.2339 6.96562C14.7995 7.59375 15.6183 8 16.5433 8H16.6214V10H2.62451ZM18.0683 6.04688C17.8245 6.56563 17.3776 6.90625 16.8401 6.97813C16.7433 6.99062 16.6464 6.99687 16.5464 6.99687C15.9433 6.99687 15.3901 6.74687 14.9839 6.29375L14.2401 5.46875L13.4964 6.3C13.0901 6.75313 12.537 7.00313 11.9339 7.00313C11.3308 7.00313 10.7776 6.75313 10.3714 6.3L9.62451 5.46875L8.88076 6.3C8.47451 6.75313 7.92139 7.00313 7.31826 7.00313C6.71514 7.00313 6.16201 6.75313 5.75576 6.3L5.00889 5.46875L4.26514 6.3C3.85889 6.75313 3.30576 7.00313 2.70264 7.00313C2.60264 7.00313 2.50576 6.99687 2.40889 6.98438C1.87139 6.9125 1.42451 6.57188 1.18076 6.05312C0.908886 5.47187 0.946386 4.77813 1.28389 4.24375L3.31201 1H15.937L17.9651 4.2375C18.3026 4.775 18.3401 5.46562 18.0683 6.04688Z" fill="#343839"/>
</svg>
